<mxfile host="" modified="2020-06-25T03:24:20.480Z" agent="5.0 (Windows NT 10.0; Win64; x64) AppleWebKit/537.36 (KHTML, like Gecko) Code/1.46.1 Chrome/78.0.3904.130 Electron/7.3.1 Safari/537.36" etag="7n4ZY_cXWa5YOlC4rlW-" version="13.1.3">
    <diagram id="6hGFLwfOUW9BJ-s0fimq" name="Page-1">
        <mxGraphModel dx="1417" dy="824" grid="1" gridSize="10" guides="1" tooltips="1" connect="1" arrows="1" fold="1" page="1" pageScale="1" pageWidth="1169" pageHeight="827" background="#ffffff" math="0" shadow="0">
            <root>
                <mxCell id="0"/>
                <mxCell id="1" parent="0"/>
                <mxCell id="2" value="Users" style="swimlane;fontStyle=0;childLayout=stackLayout;horizontal=1;startSize=26;horizontalStack=0;resizeParent=1;resizeParentMax=0;resizeLast=0;collapsible=1;marginBottom=0;align=center;fontSize=16;fontColor=#ffffff;labelBackgroundColor=none;fillColor=#a20025;strokeColor=#6F0000;" parent="1" vertex="1">
                    <mxGeometry x="330" y="90" width="190" height="160" as="geometry">
                        <mxRectangle x="350" y="90" width="70" height="26" as="alternateBounds"/>
                    </mxGeometry>
                </mxCell>
                <mxCell id="14" value="uid: String" style="text;strokeColor=none;fillColor=none;spacingLeft=4;spacingRight=4;overflow=hidden;rotatable=0;points=[[0,0.5],[1,0.5]];portConstraint=eastwest;fontSize=16;labelBorderColor=#B3FF8C;fontColor=#000000;labelBackgroundColor=none;" parent="2" vertex="1">
                    <mxGeometry y="26" width="190" height="22" as="geometry"/>
                </mxCell>
                <mxCell id="4" value="photoURL: String" style="text;strokeColor=none;fillColor=none;spacingLeft=4;spacingRight=4;overflow=hidden;rotatable=0;points=[[0,0.5],[1,0.5]];portConstraint=eastwest;fontSize=16;labelBorderColor=#B3FF8C;fontColor=#000000;labelBackgroundColor=none;" parent="2" vertex="1">
                    <mxGeometry y="48" width="190" height="26" as="geometry"/>
                </mxCell>
                <mxCell id="3" value="displayName: String" style="text;strokeColor=none;fillColor=none;spacingLeft=4;spacingRight=4;overflow=hidden;rotatable=0;points=[[0,0.5],[1,0.5]];portConstraint=eastwest;fontSize=16;labelBorderColor=#B3FF8C;fontColor=#000000;labelBackgroundColor=none;" parent="2" vertex="1">
                    <mxGeometry y="74" width="190" height="26" as="geometry"/>
                </mxCell>
                <mxCell id="5" value="createdAt: timestamp" style="text;strokeColor=none;fillColor=none;spacingLeft=4;spacingRight=4;overflow=hidden;rotatable=0;points=[[0,0.5],[1,0.5]];portConstraint=eastwest;fontSize=16;labelBorderColor=#B3FF8C;fontColor=#000000;labelBackgroundColor=none;" parent="2" vertex="1">
                    <mxGeometry y="100" width="190" height="30" as="geometry"/>
                </mxCell>
                <mxCell id="15" value="updatedAt: timestamp" style="text;strokeColor=none;fillColor=none;spacingLeft=4;spacingRight=4;overflow=hidden;rotatable=0;points=[[0,0.5],[1,0.5]];portConstraint=eastwest;fontSize=16;labelBorderColor=#B3FF8C;fontColor=#000000;labelBackgroundColor=none;" parent="2" vertex="1">
                    <mxGeometry y="130" width="190" height="30" as="geometry"/>
                </mxCell>
                <mxCell id="17" value="Friends" style="swimlane;fontStyle=0;childLayout=stackLayout;horizontal=1;startSize=26;horizontalStack=0;resizeParent=1;resizeParentMax=0;resizeLast=0;collapsible=1;marginBottom=0;align=center;fontSize=16;fontColor=#ffffff;labelBackgroundColor=none;fillColor=#a20025;strokeColor=#6F0000;" parent="1" vertex="1">
                    <mxGeometry x="340" y="360" width="190" height="104" as="geometry"/>
                </mxCell>
                <mxCell id="18" value="userId: String" style="text;strokeColor=none;fillColor=none;spacingLeft=4;spacingRight=4;overflow=hidden;rotatable=0;points=[[0,0.5],[1,0.5]];portConstraint=eastwest;fontSize=16;labelBorderColor=#B3FF8C;fontColor=#000000;labelBackgroundColor=none;" parent="17" vertex="1">
                    <mxGeometry y="26" width="190" height="26" as="geometry"/>
                </mxCell>
                <mxCell id="19" value="friendId: String" style="text;strokeColor=none;fillColor=none;spacingLeft=4;spacingRight=4;overflow=hidden;rotatable=0;points=[[0,0.5],[1,0.5]];portConstraint=eastwest;fontSize=16;labelBorderColor=#B3FF8C;fontColor=#000000;labelBackgroundColor=none;" parent="17" vertex="1">
                    <mxGeometry y="52" width="190" height="26" as="geometry"/>
                </mxCell>
                <mxCell id="27" value="createdAt: timestamp" style="text;strokeColor=none;fillColor=none;spacingLeft=4;spacingRight=4;overflow=hidden;rotatable=0;points=[[0,0.5],[1,0.5]];portConstraint=eastwest;fontSize=16;labelBorderColor=#B3FF8C;fontColor=#000000;labelBackgroundColor=none;" parent="17" vertex="1">
                    <mxGeometry y="78" width="190" height="26" as="geometry"/>
                </mxCell>
                <mxCell id="36" value="BuddyChats" style="swimlane;fontStyle=0;childLayout=stackLayout;horizontal=1;startSize=26;horizontalStack=0;resizeParent=1;resizeParentMax=0;resizeLast=0;collapsible=1;marginBottom=0;align=center;fontSize=16;fontColor=#ffffff;labelBackgroundColor=none;fillColor=#a20025;strokeColor=#6F0000;" parent="1" vertex="1">
                    <mxGeometry x="600" y="200" width="160" height="156" as="geometry"/>
                </mxCell>
                <mxCell id="37" value="receiverId: String" style="text;strokeColor=none;fillColor=none;spacingLeft=4;spacingRight=4;overflow=hidden;rotatable=0;points=[[0,0.5],[1,0.5]];portConstraint=eastwest;fontSize=16;labelBorderColor=#B3FF8C;fontColor=#000000;labelBackgroundColor=none;" parent="36" vertex="1">
                    <mxGeometry y="26" width="160" height="26" as="geometry"/>
                </mxCell>
                <mxCell id="38" value="senderId: String" style="text;strokeColor=none;fillColor=none;spacingLeft=4;spacingRight=4;overflow=hidden;rotatable=0;points=[[0,0.5],[1,0.5]];portConstraint=eastwest;fontSize=16;labelBorderColor=#B3FF8C;fontColor=#000000;labelBackgroundColor=none;" parent="36" vertex="1">
                    <mxGeometry y="52" width="160" height="26" as="geometry"/>
                </mxCell>
                <mxCell id="40" value="messageType: String" style="text;strokeColor=none;fillColor=none;spacingLeft=4;spacingRight=4;overflow=hidden;rotatable=0;points=[[0,0.5],[1,0.5]];portConstraint=eastwest;fontSize=16;labelBorderColor=#B3FF8C;fontColor=#000000;labelBackgroundColor=none;" parent="36" vertex="1">
                    <mxGeometry y="78" width="160" height="26" as="geometry"/>
                </mxCell>
                <mxCell id="41" value="text: String" style="text;strokeColor=none;fillColor=none;spacingLeft=4;spacingRight=4;overflow=hidden;rotatable=0;points=[[0,0.5],[1,0.5]];portConstraint=eastwest;fontSize=16;labelBorderColor=#B3FF8C;fontColor=#000000;labelBackgroundColor=none;" parent="36" vertex="1">
                    <mxGeometry y="104" width="160" height="26" as="geometry"/>
                </mxCell>
                <mxCell id="42" value="createdAt: timestamp" style="text;strokeColor=none;fillColor=none;spacingLeft=4;spacingRight=4;overflow=hidden;rotatable=0;points=[[0,0.5],[1,0.5]];portConstraint=eastwest;fontSize=16;labelBorderColor=#B3FF8C;fontColor=#000000;labelBackgroundColor=none;" parent="36" vertex="1">
                    <mxGeometry y="130" width="160" height="26" as="geometry"/>
                </mxCell>
                <mxCell id="7" value="Notification(Requests)" style="swimlane;fontStyle=0;childLayout=stackLayout;horizontal=1;startSize=22;horizontalStack=0;resizeParent=1;resizeParentMax=0;resizeLast=0;collapsible=1;marginBottom=0;align=center;fontSize=16;fontColor=#ffffff;labelBackgroundColor=none;fillColor=#a20025;strokeColor=#6F0000;" parent="1" vertex="1">
                    <mxGeometry x="50" y="280" width="200" height="104" as="geometry"/>
                </mxCell>
                <mxCell id="29" value="userId: String" style="text;strokeColor=none;fillColor=none;spacingLeft=4;spacingRight=4;overflow=hidden;rotatable=0;points=[[0,0.5],[1,0.5]];portConstraint=eastwest;fontSize=16;labelBorderColor=#B3FF8C;fontColor=#000000;labelBackgroundColor=none;" parent="7" vertex="1">
                    <mxGeometry y="22" width="200" height="26" as="geometry"/>
                </mxCell>
                <mxCell id="9" value="senderId: String" style="text;strokeColor=none;fillColor=none;spacingLeft=4;spacingRight=4;overflow=hidden;rotatable=0;points=[[0,0.5],[1,0.5]];portConstraint=eastwest;fontSize=16;labelBorderColor=#B3FF8C;fontColor=#000000;labelBackgroundColor=none;" parent="7" vertex="1">
                    <mxGeometry y="48" width="200" height="26" as="geometry"/>
                </mxCell>
                <mxCell id="23" value="createdAt: timestamp" style="text;strokeColor=none;fillColor=none;spacingLeft=4;spacingRight=4;overflow=hidden;rotatable=0;points=[[0,0.5],[1,0.5]];portConstraint=eastwest;fontSize=16;labelBorderColor=#B3FF8C;fontColor=#000000;labelBackgroundColor=none;" parent="7" vertex="1">
                    <mxGeometry y="74" width="200" height="30" as="geometry"/>
                </mxCell>
                <mxCell id="46" style="edgeStyle=orthogonalEdgeStyle;rounded=0;orthogonalLoop=1;jettySize=auto;html=1;entryX=0;entryY=0.5;entryDx=0;entryDy=0;startArrow=halfCircle;startFill=0;strokeColor=#000000;endSize=10;startSize=10;fontColor=#000000;labelBackgroundColor=none;fontSize=16;" parent="1" target="14" edge="1">
                    <mxGeometry relative="1" as="geometry">
                        <mxPoint x="300" y="160" as="targetPoint"/>
                        <mxPoint x="250" y="330" as="sourcePoint"/>
                        <Array as="points">
                            <mxPoint x="280" y="330"/>
                            <mxPoint x="280" y="127"/>
                        </Array>
                    </mxGeometry>
                </mxCell>
                <mxCell id="48" style="edgeStyle=orthogonalEdgeStyle;rounded=0;orthogonalLoop=1;jettySize=auto;html=1;endArrow=classic;endFill=1;entryX=1;entryY=0.5;entryDx=0;entryDy=0;startArrow=halfCircle;startFill=0;strokeColor=#000000;fontColor=#000000;labelBackgroundColor=none;fontSize=16;" parent="1" target="14" edge="1">
                    <mxGeometry relative="1" as="geometry">
                        <mxPoint x="550" y="190" as="targetPoint"/>
                        <mxPoint x="340" y="410" as="sourcePoint"/>
                        <Array as="points">
                            <mxPoint x="320" y="410"/>
                            <mxPoint x="320" y="320"/>
                            <mxPoint x="550" y="320"/>
                            <mxPoint x="550" y="127"/>
                        </Array>
                    </mxGeometry>
                </mxCell>
                <mxCell id="49" style="edgeStyle=orthogonalEdgeStyle;rounded=0;orthogonalLoop=1;jettySize=auto;html=1;endArrow=halfCircle;endFill=0;entryX=1.003;entryY=1.054;entryDx=0;entryDy=0;entryPerimeter=0;startArrow=halfCircle;startFill=0;exitX=-0.005;exitY=0.984;exitDx=0;exitDy=0;exitPerimeter=0;strokeColor=#000000;fontColor=#000000;labelBackgroundColor=none;fontSize=16;" parent="1" source="37" target="18" edge="1">
                    <mxGeometry relative="1" as="geometry">
                        <mxPoint x="540" y="410" as="targetPoint"/>
                        <Array as="points">
                            <mxPoint x="565" y="252"/>
                            <mxPoint x="565" y="413"/>
                        </Array>
                    </mxGeometry>
                </mxCell>
                <mxCell id="52" value="" style="endArrow=halfCircle;html=1;endFill=0;startArrow=halfCircle;startFill=0;fontColor=#000000;labelBackgroundColor=none;fontSize=16;" parent="1" edge="1">
                    <mxGeometry width="50" height="50" relative="1" as="geometry">
                        <mxPoint x="650" y="740" as="sourcePoint"/>
                        <mxPoint x="700" y="690" as="targetPoint"/>
                    </mxGeometry>
                </mxCell>
                <mxCell id="54" value="" style="endArrow=classic;html=1;endFill=1;startArrow=halfCircle;startFill=0;fontColor=#000000;labelBackgroundColor=none;fontSize=16;" parent="1" edge="1">
                    <mxGeometry width="50" height="50" relative="1" as="geometry">
                        <mxPoint x="640" y="690" as="sourcePoint"/>
                        <mxPoint x="690" y="640" as="targetPoint"/>
                    </mxGeometry>
                </mxCell>
                <mxCell id="57" value="&lt;ul style=&quot;font-size: 16px;&quot;&gt;&lt;li style=&quot;font-size: 16px;&quot;&gt;2 trường userId / senderId tham chiếu&amp;nbsp;đến unique id của Users&lt;/li&gt;&lt;li style=&quot;font-size: 16px;&quot;&gt;isRead(default:false): hiển thị thông bảo bạn bè gửi&amp;nbsp;đến&amp;nbsp;đã&amp;nbsp;được người dùng ( userId)&amp;nbsp;đọc hay chưa&lt;/li&gt;&lt;/ul&gt;" style="text;html=1;strokeColor=none;fillColor=none;align=left;verticalAlign=middle;whiteSpace=wrap;rounded=0;fontColor=#000000;labelBackgroundColor=none;fontSize=16;" parent="1" vertex="1">
                    <mxGeometry y="500" width="200" height="20" as="geometry"/>
                </mxCell>
                <mxCell id="58" value="&lt;ul style=&quot;font-size: 16px;&quot;&gt;&lt;li style=&quot;font-size: 16px;&quot;&gt;uid của Users là unique id&lt;/li&gt;&lt;/ul&gt;" style="text;html=1;strokeColor=none;fillColor=none;align=left;verticalAlign=middle;whiteSpace=wrap;rounded=0;fontColor=#000000;labelBackgroundColor=none;fontSize=16;" parent="1" vertex="1">
                    <mxGeometry x="324" y="30" width="180" height="20" as="geometry"/>
                </mxCell>
                <mxCell id="59" value="&lt;ul style=&quot;font-size: 16px;&quot;&gt;&lt;li style=&quot;font-size: 16px;&quot;&gt;2 trường userId / senderId tham chiếu&amp;nbsp;đến unique id của Users&lt;/li&gt;&lt;li style=&quot;font-size: 16px;&quot;&gt;status(default: false): trạng thái bạn bè. False: nằm trong danh sách bạn bè&amp;nbsp;đang chờ kết bạn. True: bạn&amp;nbsp;đã&amp;nbsp;được chấp thuận&lt;/li&gt;&lt;/ul&gt;" style="text;html=1;strokeColor=none;fillColor=none;align=left;verticalAlign=middle;whiteSpace=wrap;rounded=0;fontColor=#000000;labelBackgroundColor=none;fontSize=16;" parent="1" vertex="1">
                    <mxGeometry x="300" y="630" width="200" height="20" as="geometry"/>
                </mxCell>
                <mxCell id="60" value="&lt;ul style=&quot;font-size: 16px;&quot;&gt;&lt;li style=&quot;font-size: 16px;&quot;&gt;2 trường receiverId / senderId tham chiếu 2 trường userId/senderId của Friends vì chỉ có bạn bè mới có thể chat với nhau&lt;/li&gt;&lt;li style=&quot;font-size: 16px;&quot;&gt;converstationType: chat thường hoặc chat nhóm&lt;/li&gt;&lt;li style=&quot;font-size: 16px;&quot;&gt;messageType:&amp;nbsp;image/video/text&lt;/li&gt;&lt;li style=&quot;font-size: 16px;&quot;&gt;text: text/image&lt;/li&gt;&lt;/ul&gt;" style="text;html=1;strokeColor=none;fillColor=none;align=left;verticalAlign=middle;whiteSpace=wrap;rounded=0;fontColor=#000000;labelBackgroundColor=none;fontSize=16;" parent="1" vertex="1">
                    <mxGeometry x="560" y="540" width="200" height="20" as="geometry"/>
                </mxCell>
                <mxCell id="73" style="edgeStyle=orthogonalEdgeStyle;rounded=0;orthogonalLoop=1;jettySize=auto;html=1;labelBackgroundColor=none;startSize=10;endSize=10;strokeColor=#000000;fontSize=16;fontColor=#000000;" edge="1" parent="1" source="57" target="57">
                    <mxGeometry relative="1" as="geometry"/>
                </mxCell>
            </root>
        </mxGraphModel>
    </diagram>
</mxfile>